TITLE ""
FILE "P1Q_t_0849-0858.mp3" MP3
  TRACK 01 AUDIO
    TITLE "P1Q_t_0849-0858_01"
    INDEX 01 00:00:00
  TRACK 02 AUDIO
    TITLE "P1Q_t_0849-0858_02"
    INDEX 01 00:00:12
  TRACK 03 AUDIO
    TITLE "P1Q_t_0849-0858_03"
    INDEX 01 00:01:37
  TRACK 04 AUDIO
    TITLE "P1Q_t_0849-0858_04"
    INDEX 01 00:01:61
  TRACK 05 AUDIO
    TITLE "P1Q_t_0849-0858_05"
    INDEX 01 00:03:52
  TRACK 06 AUDIO
    TITLE "P1Q_t_0849-0858_06"
    INDEX 01 00:03:71
  TRACK 07 AUDIO
    TITLE "P1Q_t_0849-0858_07"
    INDEX 01 00:08:27
  TRACK 08 AUDIO
    TITLE "P1Q_t_0849-0858_08"
    INDEX 01 00:08:74
  TRACK 09 AUDIO
    TITLE "P1Q_t_0849-0858_09"
    INDEX 01 00:10:38
  TRACK 10 AUDIO
    TITLE "P1Q_t_0849-0858_10"
    INDEX 01 00:10:60
  TRACK 11 AUDIO
    TITLE "P1Q_t_0849-0858_11"
    INDEX 01 00:14:07
  TRACK 12 AUDIO
    TITLE "P1Q_t_0849-0858_12"
    INDEX 01 00:14:26
  TRACK 13 AUDIO
    TITLE "P1Q_t_0849-0858_13"
    INDEX 01 00:19:59
  TRACK 14 AUDIO
    TITLE "P1Q_t_0849-0858_14"
    INDEX 01 00:20:29
  TRACK 15 AUDIO
    TITLE "P1Q_t_0849-0858_15"
    INDEX 01 00:21:34
  TRACK 16 AUDIO
    TITLE "P1Q_t_0849-0858_16"
    INDEX 01 00:21:59
  TRACK 17 AUDIO
    TITLE "P1Q_t_0849-0858_17"
    INDEX 01 00:24:73
  TRACK 18 AUDIO
    TITLE "P1Q_t_0849-0858_18"
    INDEX 01 00:25:18
  TRACK 19 AUDIO
    TITLE "P1Q_t_0849-0858_19"
    INDEX 01 00:29:67
  TRACK 20 AUDIO
    TITLE "P1Q_t_0849-0858_20"
    INDEX 01 00:30:41
  TRACK 21 AUDIO
    TITLE "P1Q_t_0849-0858_21"
    INDEX 01 00:31:48
  TRACK 22 AUDIO
    TITLE "P1Q_t_0849-0858_22"
    INDEX 01 00:31:68
  TRACK 23 AUDIO
    TITLE "P1Q_t_0849-0858_23"
    INDEX 01 00:36:10
  TRACK 24 AUDIO
    TITLE "P1Q_t_0849-0858_24"
    INDEX 01 00:36:28
  TRACK 25 AUDIO
    TITLE "P1Q_t_0849-0858_25"
    INDEX 01 00:40:49
  TRACK 26 AUDIO
    TITLE "P1Q_t_0849-0858_26"
    INDEX 01 00:41:19
  TRACK 27 AUDIO
    TITLE "P1Q_t_0849-0858_27"
    INDEX 01 00:42:32
  TRACK 28 AUDIO
    TITLE "P1Q_t_0849-0858_28"
    INDEX 01 00:42:54
  TRACK 29 AUDIO
    TITLE "P1Q_t_0849-0858_29"
    INDEX 01 00:44:66
  TRACK 30 AUDIO
    TITLE "P1Q_t_0849-0858_30"
    INDEX 01 00:45:13
  TRACK 31 AUDIO
    TITLE "P1Q_t_0849-0858_31"
    INDEX 01 00:49:48
  TRACK 32 AUDIO
    TITLE "P1Q_t_0849-0858_32"
    INDEX 01 00:50:18
  TRACK 33 AUDIO
    TITLE "P1Q_t_0849-0858_33"
    INDEX 01 00:51:27
  TRACK 34 AUDIO
    TITLE "P1Q_t_0849-0858_34"
    INDEX 01 00:51:51
  TRACK 35 AUDIO
    TITLE "P1Q_t_0849-0858_35"
    INDEX 01 00:56:34
  TRACK 36 AUDIO
    TITLE "P1Q_t_0849-0858_36"
    INDEX 01 00:56:54
  TRACK 37 AUDIO
    TITLE "P1Q_t_0849-0858_37"
    INDEX 01 01:02:09
  TRACK 38 AUDIO
    TITLE "P1Q_t_0849-0858_38"
    INDEX 01 01:02:54
  TRACK 39 AUDIO
    TITLE "P1Q_t_0849-0858_39"
    INDEX 01 01:03:72
  TRACK 40 AUDIO
    TITLE "P1Q_t_0849-0858_40"
    INDEX 01 01:04:18
  TRACK 41 AUDIO
    TITLE "P1Q_t_0849-0858_41"
    INDEX 01 01:06:44
  TRACK 42 AUDIO
    TITLE "P1Q_t_0849-0858_42"
    INDEX 01 01:06:66
  TRACK 43 AUDIO
    TITLE "P1Q_t_0849-0858_43"
    INDEX 01 01:11:34
  TRACK 44 AUDIO
    TITLE "P1Q_t_0849-0858_44"
    INDEX 01 01:12:08
  TRACK 45 AUDIO
    TITLE "P1Q_t_0849-0858_45"
    INDEX 01 01:13:35
  TRACK 46 AUDIO
    TITLE "P1Q_t_0849-0858_46"
    INDEX 01 01:13:56
  TRACK 47 AUDIO
    TITLE "P1Q_t_0849-0858_47"
    INDEX 01 01:15:73
  TRACK 48 AUDIO
    TITLE "P1Q_t_0849-0858_48"
    INDEX 01 01:16:19
  TRACK 49 AUDIO
    TITLE "P1Q_t_0849-0858_49"
    INDEX 01 01:21:28
  TRACK 50 AUDIO
    TITLE "P1Q_t_0849-0858_50"
    INDEX 01 01:22:00
  TRACK 51 AUDIO
    TITLE "P1Q_t_0849-0858_51"
    INDEX 01 01:23:10
  TRACK 52 AUDIO
    TITLE "P1Q_t_0849-0858_52"
    INDEX 01 01:23:31
  TRACK 53 AUDIO
    TITLE "P1Q_t_0849-0858_53"
    INDEX 01 01:24:64
  TRACK 54 AUDIO
    TITLE "P1Q_t_0849-0858_54"
    INDEX 01 01:25:10
  TRACK 55 AUDIO
    TITLE "P1Q_t_0849-0858_55"
    INDEX 01 01:29:47
  TRACK 56 AUDIO
    TITLE "P1Q_t_0849-0858_56"
    INDEX 01 01:30:19
  TRACK 57 AUDIO
    TITLE "P1Q_t_0849-0858_57"
    INDEX 01 01:31:33
  TRACK 58 AUDIO
    TITLE "P1Q_t_0849-0858_58"
    INDEX 01 01:31:56
  TRACK 59 AUDIO
    TITLE "P1Q_t_0849-0858_59"
    INDEX 01 01:32:73
  TRACK 60 AUDIO
    TITLE "P1Q_t_0849-0858_60"
    INDEX 01 01:33:18
  TRACK 61 AUDIO
    TITLE "P1Q_t_0849-0858_61"
    INDEX 01 01:37:06
